<?xml version="1.0" encoding="UTF-8"?><svg xmlns="http://www.w3.org/2000/svg" viewBox="0 0 201.82 189.39"><g id="a"><g><path d="M201.82,189.39H0V0H201.82V189.39Zm-169.83-8.17h55.93V113.74h25.25v67.59h55.71V86.85h27.8c-2.23-2.6-4.74-4.27-7.05-6.19-11.42-9.53-22.83-19.06-34.09-28.77-1.25-1.07-2.13-3.23-2.18-4.91-.23-7.55-.09-15.11-.11-22.67,0-1.28-.14-2.56-.21-3.77h-23.96v9.06c-9.98-8.18-19.42-15.93-28.86-23.67C67.85,33.01,35.96,59.68,3.22,87.07H31.99v94.15Z" fill="#fff"/><path d="M31.99,181.22V87.07H3.22C35.96,59.68,67.85,33.01,100.23,5.93c9.44,7.74,18.89,15.49,28.86,23.67v-9.06h23.96c.07,1.21,.2,2.49,.21,3.77,.02,7.56-.12,15.12,.11,22.67,.05,1.68,.93,3.84,2.18,4.91,11.26,9.7,22.67,19.24,34.09,28.77,2.3,1.92,4.82,3.59,7.05,6.19h-27.8v94.47h-55.71V113.74h-25.25v67.48H31.99ZM122.88,104v67.49h36.33V76.93h10.67c-7.72-6.5-14.52-12.61-21.76-18.15-3.71-2.84-5.07-5.9-4.77-10.47,.39-6.02,.1-12.09,.1-18.39l-4.6,.23v20.51c-13.25-10.99-25.87-21.45-38.63-32.04-23.19,19.49-45.98,38.66-68.77,57.82l.24,.84h10.26v94.25h36.11V104h44.82Z" fill="rgba(19,78,74,.96)"/><path d="M122.88,104h-44.82v67.53H41.95V77.29h-10.26l-.24-.84c22.79-19.16,45.59-38.33,68.77-57.82,12.76,10.58,25.38,21.05,38.63,32.04V30.15l4.6-.23c0,6.3,.29,12.36-.1,18.39-.3,4.57,1.06,7.63,4.77,10.47,7.24,5.54,14.04,11.66,21.76,18.15h-10.67v94.56h-36.33V104Z" fill="#fff"/></g></g><g id="b"><g><path d="M127,171.49H62.22c0-39.93,0-79.86,0-119.81H127v119.81Zm-17.72-82.04c1.09-.43,1.58,0,1.82,1,.24,1.01,.58,1.99,.89,2.98,1.21,3.82,2.45,7.64,3.63,11.47,1.14,3.7,2.16,7.43,3.37,11.11,.49,1.51,1.55,2.38,3,2.49,2.43,.18,4.18-2.48,3.51-4.86-1.07-3.79-2.3-7.53-3.47-11.3-1.19-3.83-2.32-7.68-3.59-11.48-1.02-3.07-1.49-6.34-3.34-9.11-1.97-2.95-4.58-4.85-8.26-4.88-3.75-.03-7.5,0-11.25,0-1.94,0-3.69,.43-5.38,1.51-2.64,1.69-4.11,4.11-5.03,6.97-.76,2.38-1.48,4.78-2.25,7.28-1.02-1.12-1.95-2.09-2.83-3.1-1.27-1.44-2.48-2.95-3.78-4.36-.9-.98-1.84-1.96-2.93-2.72-.57-.39-.79-.68-.78-1.33,.03-2.5,0-4.99,.02-7.49,0-.94-.21-1.92,.74-2.63,.27-.2,.5-.68,.46-1.01-.12-1.2,.51-2,1.24-2.79,.23-.25,.47-.51,.7-.76,.69-.77,1.41-1.51,2.08-2.3,.47-.56,.77-1.25,.13-1.85-.62-.59-1.22-.24-1.71,.29-.49,.51-.96,1.04-1.52,1.64,0-.33-.04-.54,0-.73,.19-.7,.55-1.4,.56-2.09,0-.51-.34-1.24-.76-1.47-.64-.36-.94,.36-1.15,.86-.24,.59-.4,1.21-.6,1.82-.19-.67-.17-1.31-.2-1.96-.04-.66-.32-1.15-1.07-1.13-.71,.02-.95,.5-.97,1.12-.02,.65,0,1.29,0,1.94-.44-.69-.67-1.43-1-2.13-.12-.26-.51-.58-.74-.56-.3,.03-.78,.34-.82,.59-.1,.61-.04,1.26,.05,1.88,.09,.6,.32,1.19,.48,1.78-.67-.48-1.15-1-1.63-1.53-.49-.54-1.08-.89-1.71-.35-.66,.57-.41,1.29,.07,1.85,1.09,1.28,2.4,2.42,3.31,3.81,.86,1.33,1.74,2.88,1.88,4.41,.29,3.13,.1,6.3,.07,9.46,0,.28-.19,.66-.41,.83-1.86,1.47-2.3,3.96-.95,5.91,.73,1.06,1.74,1.95,1.4,3.47-.14,.63-.14,1.48,.69,1.62,.48,.09,1.05-.31,1.77-.56,.72,.78,1.63,1.77,2.53,2.76,2.11,2.36,4.25,4.69,6.31,7.1,1.63,1.9,4.83,1.07,5.62-1.54,1.11-3.67,2.29-7.33,3.39-11.01,.29-.98,.79-1.29,1.79-.91-1.32,4.5-2.63,9.01-3.97,13.61h24.56l-3.97-13.6Zm-17.24,38.57c0,.6,0,1.04,0,1.49,0,11.54,0,23.08,0,34.63,0,1.39,.3,2.62,1.19,3.76,1.27,1.63,4.45,1.8,5.71,.19,.83-1.07,1.27-2.25,1.26-3.64-.03-4.78-.01-9.56-.01-14.34,0-6.97,0-13.94,0-20.9,0-.37,0-.73,0-1.1h1.5c.02,.24,.06,.41,.06,.57,0,10.46,0,20.92,.01,31.39,0,1.97-.09,3.97,.2,5.9,.39,2.58,3.01,3.96,5.36,2.96,1.94-.82,2.56-2.52,2.57-4.47,.03-5.19,0-10.38,.01-15.57,0-6.55,0-13.1,0-19.66,0-.37,.03-.74,.06-1.23h10.62c-2.29-7.8-4.54-15.44-6.78-23.06h-3.91c.12,1.06,.25,2.05,.35,3.04,.26,2.6,.94,5.19,.19,7.83-.99,3.5-3.05,6.13-6.44,7.44-2.31,.9-4.68,.75-7.01-.47-3.09-1.63-4.74-4.2-5.57-7.45-.64-2.51,.07-4.96,.3-7.43,.09-.98,.22-1.95,.34-2.98h-3.92l-6.77,23.1h10.68Zm9.1-66.54h0c-2.12,0-4.24,0-6.36-.02-.58,0-.85,.16-1,.75-.77,3.14-.34,5.96,1.68,8.6,2.31,3.02,6.76,3.41,9.41,1.6,3.47-2.37,4.41-7.12,3.46-10.12-.22-.7-.53-.83-1.16-.83-2.01,.02-4.03,0-6.04,0Zm7.91-8.36h-16c.35,2.07,.65,4.05,1.04,6.01,.06,.3,.47,.75,.73,.76,4.33,.05,8.65,.03,13.02,.03l1.22-6.8Z" fill="#fff"/><path d="M109.28,89.45l3.97,13.6h-24.56c1.34-4.6,2.66-9.1,3.97-13.61-1.01-.38-1.5-.07-1.79,.91-1.1,3.68-2.28,7.33-3.39,11.01-.79,2.61-3.99,3.43-5.62,1.54-2.06-2.4-4.2-4.74-6.31-7.1-.9-1-1.81-1.98-2.53-2.76-.72,.25-1.29,.65-1.77,.56-.82-.15-.83-1-.69-1.62,.33-1.52-.67-2.41-1.4-3.47-1.35-1.95-.91-4.44,.95-5.91,.22-.18,.41-.55,.41-.83,.03-3.16,.22-6.33-.07-9.46-.14-1.52-1.02-3.08-1.88-4.41-.91-1.4-2.22-2.53-3.31-3.81-.48-.56-.73-1.27-.07-1.85,.63-.55,1.22-.2,1.71,.35,.48,.53,.97,1.05,1.63,1.53-.17-.59-.39-1.18-.48-1.78-.1-.62-.15-1.27-.05-1.88,.04-.25,.52-.56,.82-.59,.24-.02,.62,.3,.74,.56,.33,.69,.56,1.44,1,2.13,0-.65-.02-1.3,0-1.94,.02-.62,.26-1.1,.97-1.12,.76-.02,1.04,.48,1.07,1.13,.04,.64,0,1.29,.2,1.96,.2-.61,.36-1.23,.6-1.82,.21-.5,.51-1.21,1.15-.86,.41,.23,.76,.96,.76,1.47,0,.7-.37,1.39-.56,2.09-.05,.19,0,.4,0,.73,.56-.6,1.03-1.13,1.52-1.64,.5-.52,1.09-.88,1.71-.29,.63,.6,.34,1.29-.13,1.85-.66,.79-1.38,1.54-2.08,2.3-.23,.26-.46,.51-.7,.76-.73,.79-1.36,1.59-1.24,2.79,.03,.33-.2,.81-.46,1.01-.95,.71-.74,1.69-.74,2.63,0,2.5,.02,4.99-.02,7.49,0,.66,.21,.94,.78,1.33,1.08,.75,2.02,1.74,2.93,2.72,1.3,1.41,2.51,2.91,3.78,4.36,.89,1.01,1.81,1.98,2.83,3.1,.77-2.5,1.48-4.89,2.25-7.28,.92-2.86,2.39-5.28,5.03-6.97,1.69-1.08,3.44-1.52,5.38-1.51,3.75,0,7.5-.02,11.25,0,3.68,.03,6.29,1.93,8.26,4.88,1.85,2.77,2.32,6.05,3.34,9.11,1.27,3.8,2.4,7.65,3.59,11.48,1.17,3.76,2.4,7.51,3.47,11.3,.67,2.38-1.08,5.04-3.51,4.86-1.44-.11-2.5-.98-3-2.49-1.2-3.68-2.23-7.41-3.37-11.11-1.18-3.83-2.42-7.65-3.63-11.47-.31-.99-.65-1.97-.89-2.98-.24-1-.72-1.43-1.82-1Z" fill="#134e4a"/><path d="M92.04,128.03h-10.68l6.77-23.1h3.92c-.12,1.03-.26,2-.34,2.98-.22,2.47-.94,4.92-.3,7.43,.83,3.25,2.48,5.82,5.57,7.45,2.33,1.22,4.7,1.37,7.01,.47,3.39-1.31,5.44-3.94,6.44-7.44,.75-2.65,.07-5.23-.19-7.83-.1-.99-.23-1.97-.35-3.04h3.91c2.24,7.62,4.49,15.26,6.78,23.06h-10.62c-.02,.5-.06,.87-.06,1.23,0,6.55,0,13.1,0,19.66,0,5.19,.02,10.38-.01,15.57,0,1.95-.64,3.65-2.57,4.47-2.35,.99-4.98-.39-5.36-2.96-.29-1.93-.2-3.93-.2-5.9-.02-10.46,0-20.92-.01-31.39,0-.17-.03-.34-.06-.57h-1.5c0,.37,0,.73,0,1.1,0,6.97,0,13.94,0,20.9,0,4.78-.02,9.56,.01,14.34,.01,1.39-.43,2.57-1.26,3.64-1.26,1.61-4.44,1.44-5.71-.19-.89-1.14-1.19-2.37-1.19-3.76,0-11.54,0-23.08,0-34.63,0-.44,0-.89,0-1.49Z" fill="#134e4a"/><path d="M101.14,61.49c2.01,0,4.03,.02,6.04,0,.63,0,.94,.12,1.16,.83,.94,3,0,7.75-3.46,10.12-2.65,1.81-7.1,1.42-9.41-1.6-2.02-2.64-2.45-5.47-1.68-8.6,.15-.59,.42-.76,1-.75,2.12,.03,4.24,.01,6.36,.01h0Z" fill="#134e4a"/><path d="M109.05,53.13l-1.22,6.8c-4.37,0-8.7,.01-13.02-.03-.25,0-.67-.46-.73-.76-.38-1.96-.69-3.94-1.04-6.01h16Z" fill="#134e4a"/></g></g></svg>